<mxfile host="app.diagrams.net" modified="2024-06-09T13:52:01.549Z" agent="Mozilla/5.0 (Windows NT 10.0; Win64; x64) AppleWebKit/537.36 (KHTML, like Gecko) Chrome/125.0.0.0 Safari/537.36" etag="pwHvohsjd0pN3Nhgcn8F" version="24.4.6" type="device">
  <diagram id="R2lEEEUBdFMjLlhIrx00" name="Page-1">
    <mxGraphModel dx="2021" dy="1052" grid="1" gridSize="10" guides="1" tooltips="1" connect="1" arrows="1" fold="1" page="0" pageScale="1" pageWidth="850" pageHeight="1100" math="0" shadow="0" extFonts="Permanent Marker^https://fonts.googleapis.com/css?family=Permanent+Marker">
      <root>
        <mxCell id="0" />
        <mxCell id="1" parent="0" />
        <mxCell id="gbfgaIHnp0iiA1zuApGj-1" value="Faculty" style="rounded=0;whiteSpace=wrap;html=1;" vertex="1" parent="1">
          <mxGeometry x="150" y="20" width="110" height="40" as="geometry" />
        </mxCell>
        <mxCell id="gbfgaIHnp0iiA1zuApGj-2" value="&lt;u&gt;FacultyID&lt;/u&gt;" style="ellipse;whiteSpace=wrap;html=1;" vertex="1" parent="1">
          <mxGeometry x="80" y="-80" width="90" height="50" as="geometry" />
        </mxCell>
        <mxCell id="gbfgaIHnp0iiA1zuApGj-3" value="FacultyName" style="ellipse;whiteSpace=wrap;html=1;" vertex="1" parent="1">
          <mxGeometry x="180" y="-80" width="90" height="50" as="geometry" />
        </mxCell>
        <mxCell id="gbfgaIHnp0iiA1zuApGj-4" value="" style="endArrow=none;html=1;rounded=0;exitX=0;exitY=0;exitDx=0;exitDy=0;entryX=0.5;entryY=1;entryDx=0;entryDy=0;" edge="1" parent="1" source="gbfgaIHnp0iiA1zuApGj-1" target="gbfgaIHnp0iiA1zuApGj-2">
          <mxGeometry width="50" height="50" relative="1" as="geometry">
            <mxPoint x="340" y="110" as="sourcePoint" />
            <mxPoint x="390" y="60" as="targetPoint" />
          </mxGeometry>
        </mxCell>
        <mxCell id="gbfgaIHnp0iiA1zuApGj-5" value="" style="endArrow=none;html=1;rounded=0;exitX=0.25;exitY=0;exitDx=0;exitDy=0;entryX=0.278;entryY=0.947;entryDx=0;entryDy=0;entryPerimeter=0;" edge="1" parent="1" source="gbfgaIHnp0iiA1zuApGj-1" target="gbfgaIHnp0iiA1zuApGj-3">
          <mxGeometry width="50" height="50" relative="1" as="geometry">
            <mxPoint x="160" y="30" as="sourcePoint" />
            <mxPoint x="135" y="-20" as="targetPoint" />
            <Array as="points" />
          </mxGeometry>
        </mxCell>
        <mxCell id="gbfgaIHnp0iiA1zuApGj-11" style="edgeStyle=orthogonalEdgeStyle;rounded=0;orthogonalLoop=1;jettySize=auto;html=1;entryX=0;entryY=0.5;entryDx=0;entryDy=0;endArrow=none;endFill=0;" edge="1" parent="1" source="gbfgaIHnp0iiA1zuApGj-6" target="gbfgaIHnp0iiA1zuApGj-7">
          <mxGeometry relative="1" as="geometry" />
        </mxCell>
        <mxCell id="gbfgaIHnp0iiA1zuApGj-6" value="Fa-De" style="rhombus;whiteSpace=wrap;html=1;" vertex="1" parent="1">
          <mxGeometry x="350" y="80" width="70" height="40" as="geometry" />
        </mxCell>
        <mxCell id="gbfgaIHnp0iiA1zuApGj-7" value="Department" style="rounded=0;whiteSpace=wrap;html=1;" vertex="1" parent="1">
          <mxGeometry x="630" y="80" width="110" height="40" as="geometry" />
        </mxCell>
        <mxCell id="gbfgaIHnp0iiA1zuApGj-8" value="&lt;u&gt;DepartmentID&lt;/u&gt;" style="ellipse;whiteSpace=wrap;html=1;" vertex="1" parent="1">
          <mxGeometry x="600" y="-20" width="90" height="50" as="geometry" />
        </mxCell>
        <mxCell id="gbfgaIHnp0iiA1zuApGj-9" value="" style="endArrow=none;html=1;rounded=0;" edge="1" parent="1" target="gbfgaIHnp0iiA1zuApGj-8">
          <mxGeometry width="50" height="50" relative="1" as="geometry">
            <mxPoint x="640" y="80" as="sourcePoint" />
            <mxPoint x="315" y="40" as="targetPoint" />
          </mxGeometry>
        </mxCell>
        <mxCell id="gbfgaIHnp0iiA1zuApGj-10" value="" style="endArrow=none;html=1;rounded=0;exitX=0;exitY=0.5;exitDx=0;exitDy=0;entryX=1;entryY=0.5;entryDx=0;entryDy=0;" edge="1" parent="1" source="gbfgaIHnp0iiA1zuApGj-6" target="gbfgaIHnp0iiA1zuApGj-1">
          <mxGeometry width="50" height="50" relative="1" as="geometry">
            <mxPoint x="248" y="180" as="sourcePoint" />
            <mxPoint x="275" y="127" as="targetPoint" />
            <Array as="points" />
          </mxGeometry>
        </mxCell>
        <mxCell id="gbfgaIHnp0iiA1zuApGj-12" value="DepartmentName" style="ellipse;whiteSpace=wrap;html=1;" vertex="1" parent="1">
          <mxGeometry x="700" y="-20" width="100" height="50" as="geometry" />
        </mxCell>
        <mxCell id="gbfgaIHnp0iiA1zuApGj-14" value="" style="endArrow=none;html=1;rounded=0;entryX=0.3;entryY=1.013;entryDx=0;entryDy=0;entryPerimeter=0;" edge="1" parent="1" source="gbfgaIHnp0iiA1zuApGj-7" target="gbfgaIHnp0iiA1zuApGj-12">
          <mxGeometry width="50" height="50" relative="1" as="geometry">
            <mxPoint x="650" y="90" as="sourcePoint" />
            <mxPoint x="653" y="40" as="targetPoint" />
          </mxGeometry>
        </mxCell>
        <mxCell id="gbfgaIHnp0iiA1zuApGj-15" value="1" style="text;html=1;align=center;verticalAlign=middle;resizable=0;points=[];autosize=1;strokeColor=none;fillColor=none;" vertex="1" parent="1">
          <mxGeometry x="255" y="20" width="30" height="30" as="geometry" />
        </mxCell>
        <mxCell id="gbfgaIHnp0iiA1zuApGj-16" value="M" style="text;html=1;align=center;verticalAlign=middle;resizable=0;points=[];autosize=1;strokeColor=none;fillColor=none;" vertex="1" parent="1">
          <mxGeometry x="610" y="80" width="30" height="30" as="geometry" />
        </mxCell>
        <mxCell id="gbfgaIHnp0iiA1zuApGj-17" value="Course" style="rounded=0;whiteSpace=wrap;html=1;" vertex="1" parent="1">
          <mxGeometry x="-270" y="160" width="110" height="40" as="geometry" />
        </mxCell>
        <mxCell id="gbfgaIHnp0iiA1zuApGj-18" value="&lt;u&gt;CourseID&lt;/u&gt;" style="ellipse;whiteSpace=wrap;html=1;" vertex="1" parent="1">
          <mxGeometry x="-200" width="90" height="50" as="geometry" />
        </mxCell>
        <mxCell id="gbfgaIHnp0iiA1zuApGj-19" value="" style="endArrow=none;html=1;rounded=0;" edge="1" parent="1" source="gbfgaIHnp0iiA1zuApGj-17" target="gbfgaIHnp0iiA1zuApGj-18">
          <mxGeometry width="50" height="50" relative="1" as="geometry">
            <mxPoint x="-60" y="-10" as="sourcePoint" />
            <mxPoint x="-85" y="-60" as="targetPoint" />
            <Array as="points" />
          </mxGeometry>
        </mxCell>
        <mxCell id="gbfgaIHnp0iiA1zuApGj-20" value="CourseName" style="ellipse;whiteSpace=wrap;html=1;" vertex="1" parent="1">
          <mxGeometry x="-300" width="90" height="50" as="geometry" />
        </mxCell>
        <mxCell id="gbfgaIHnp0iiA1zuApGj-21" value="" style="endArrow=none;html=1;rounded=0;" edge="1" parent="1" source="gbfgaIHnp0iiA1zuApGj-17" target="gbfgaIHnp0iiA1zuApGj-20">
          <mxGeometry width="50" height="50" relative="1" as="geometry">
            <mxPoint x="-209" y="160" as="sourcePoint" />
            <mxPoint x="-260" y="116" as="targetPoint" />
            <Array as="points" />
          </mxGeometry>
        </mxCell>
        <mxCell id="gbfgaIHnp0iiA1zuApGj-22" value="Day1" style="ellipse;whiteSpace=wrap;html=1;" vertex="1" parent="1">
          <mxGeometry x="-400" y="20" width="90" height="50" as="geometry" />
        </mxCell>
        <mxCell id="gbfgaIHnp0iiA1zuApGj-23" value="Day2&lt;span style=&quot;color: rgba(0, 0, 0, 0); font-family: monospace; font-size: 0px; text-align: start; text-wrap: nowrap;&quot;&gt;%3CmxGraphModel%3E%3Croot%3E%3CmxCell%20id%3D%220%22%2F%3E%3CmxCell%20id%3D%221%22%20parent%3D%220%22%2F%3E%3CmxCell%20id%3D%222%22%20value%3D%22Day1%22%20style%3D%22ellipse%3BwhiteSpace%3Dwrap%3Bhtml%3D1%3B%22%20vertex%3D%221%22%20parent%3D%221%22%3E%3CmxGeometry%20x%3D%22-110%22%20y%3D%22330%22%20width%3D%2290%22%20height%3D%2250%22%20as%3D%22geometry%22%2F%3E%3C%2FmxCell%3E%3C%2Froot%3E%3C%2FmxGraphModel%3E&lt;/span&gt;" style="ellipse;whiteSpace=wrap;html=1;" vertex="1" parent="1">
          <mxGeometry x="-590" y="80" width="90" height="50" as="geometry" />
        </mxCell>
        <mxCell id="gbfgaIHnp0iiA1zuApGj-24" value="TimeSlot1" style="ellipse;whiteSpace=wrap;html=1;" vertex="1" parent="1">
          <mxGeometry x="-490" y="48" width="90" height="50" as="geometry" />
        </mxCell>
        <mxCell id="gbfgaIHnp0iiA1zuApGj-25" value="TimeSlot2" style="ellipse;whiteSpace=wrap;html=1;" vertex="1" parent="1">
          <mxGeometry x="-650" y="135" width="90" height="50" as="geometry" />
        </mxCell>
        <mxCell id="gbfgaIHnp0iiA1zuApGj-27" value="" style="endArrow=none;html=1;rounded=0;entryX=1;entryY=1;entryDx=0;entryDy=0;" edge="1" parent="1" source="gbfgaIHnp0iiA1zuApGj-17" target="gbfgaIHnp0iiA1zuApGj-22">
          <mxGeometry width="50" height="50" relative="1" as="geometry">
            <mxPoint x="-240" y="150" as="sourcePoint" />
            <mxPoint x="-300" y="86" as="targetPoint" />
            <Array as="points" />
          </mxGeometry>
        </mxCell>
        <mxCell id="gbfgaIHnp0iiA1zuApGj-29" value="" style="endArrow=none;html=1;rounded=0;" edge="1" parent="1" source="gbfgaIHnp0iiA1zuApGj-17" target="gbfgaIHnp0iiA1zuApGj-24">
          <mxGeometry width="50" height="50" relative="1" as="geometry">
            <mxPoint x="-240" y="160" as="sourcePoint" />
            <mxPoint x="-349" y="131" as="targetPoint" />
            <Array as="points" />
          </mxGeometry>
        </mxCell>
        <mxCell id="gbfgaIHnp0iiA1zuApGj-30" value="" style="endArrow=none;html=1;rounded=0;exitX=0;exitY=0.25;exitDx=0;exitDy=0;" edge="1" parent="1" source="gbfgaIHnp0iiA1zuApGj-17" target="gbfgaIHnp0iiA1zuApGj-23">
          <mxGeometry width="50" height="50" relative="1" as="geometry">
            <mxPoint x="-240" y="182" as="sourcePoint" />
            <mxPoint x="-352" y="187" as="targetPoint" />
            <Array as="points" />
          </mxGeometry>
        </mxCell>
        <mxCell id="gbfgaIHnp0iiA1zuApGj-31" value="" style="endArrow=none;html=1;rounded=0;exitX=0;exitY=0.5;exitDx=0;exitDy=0;" edge="1" parent="1" source="gbfgaIHnp0iiA1zuApGj-17" target="gbfgaIHnp0iiA1zuApGj-25">
          <mxGeometry width="50" height="50" relative="1" as="geometry">
            <mxPoint x="-310" y="160" as="sourcePoint" />
            <mxPoint x="-342" y="197" as="targetPoint" />
            <Array as="points" />
          </mxGeometry>
        </mxCell>
        <mxCell id="gbfgaIHnp0iiA1zuApGj-32" value="Co-Fa" style="rhombus;whiteSpace=wrap;html=1;" vertex="1" parent="1">
          <mxGeometry x="-20" y="105" width="70" height="40" as="geometry" />
        </mxCell>
        <mxCell id="gbfgaIHnp0iiA1zuApGj-34" value="" style="endArrow=none;html=1;rounded=0;entryX=1;entryY=0;entryDx=0;entryDy=0;" edge="1" parent="1" source="gbfgaIHnp0iiA1zuApGj-1" target="gbfgaIHnp0iiA1zuApGj-32">
          <mxGeometry width="50" height="50" relative="1" as="geometry">
            <mxPoint x="390" y="200" as="sourcePoint" />
            <mxPoint x="330" y="200" as="targetPoint" />
            <Array as="points" />
          </mxGeometry>
        </mxCell>
        <mxCell id="gbfgaIHnp0iiA1zuApGj-35" value="" style="endArrow=none;html=1;rounded=0;exitX=0;exitY=0.5;exitDx=0;exitDy=0;entryX=1;entryY=0.25;entryDx=0;entryDy=0;" edge="1" parent="1" source="gbfgaIHnp0iiA1zuApGj-32" target="gbfgaIHnp0iiA1zuApGj-17">
          <mxGeometry width="50" height="50" relative="1" as="geometry">
            <mxPoint x="400" y="210" as="sourcePoint" />
            <mxPoint x="340" y="210" as="targetPoint" />
            <Array as="points" />
          </mxGeometry>
        </mxCell>
        <mxCell id="gbfgaIHnp0iiA1zuApGj-36" value="1" style="text;html=1;align=center;verticalAlign=middle;resizable=0;points=[];autosize=1;strokeColor=none;fillColor=none;" vertex="1" parent="1">
          <mxGeometry x="110" y="40" width="30" height="30" as="geometry" />
        </mxCell>
        <mxCell id="gbfgaIHnp0iiA1zuApGj-37" value="M" style="text;html=1;align=center;verticalAlign=middle;resizable=0;points=[];autosize=1;strokeColor=none;fillColor=none;" vertex="1" parent="1">
          <mxGeometry x="-175" y="128" width="30" height="30" as="geometry" />
        </mxCell>
        <mxCell id="gbfgaIHnp0iiA1zuApGj-38" value="Co-De" style="rhombus;whiteSpace=wrap;html=1;" vertex="1" parent="1">
          <mxGeometry x="200" y="158" width="70" height="40" as="geometry" />
        </mxCell>
        <mxCell id="gbfgaIHnp0iiA1zuApGj-39" value="" style="endArrow=none;html=1;rounded=0;exitX=0;exitY=0.5;exitDx=0;exitDy=0;entryX=1;entryY=0.5;entryDx=0;entryDy=0;" edge="1" parent="1" source="gbfgaIHnp0iiA1zuApGj-38" target="gbfgaIHnp0iiA1zuApGj-17">
          <mxGeometry width="50" height="50" relative="1" as="geometry">
            <mxPoint x="180" y="300" as="sourcePoint" />
            <mxPoint x="130" y="370" as="targetPoint" />
            <Array as="points" />
          </mxGeometry>
        </mxCell>
        <mxCell id="gbfgaIHnp0iiA1zuApGj-41" value="" style="endArrow=none;html=1;rounded=0;entryX=1;entryY=0;entryDx=0;entryDy=0;" edge="1" parent="1" target="gbfgaIHnp0iiA1zuApGj-38">
          <mxGeometry width="50" height="50" relative="1" as="geometry">
            <mxPoint x="630" y="110" as="sourcePoint" />
            <mxPoint x="130" y="380" as="targetPoint" />
            <Array as="points" />
          </mxGeometry>
        </mxCell>
        <mxCell id="gbfgaIHnp0iiA1zuApGj-42" value="M" style="text;html=1;align=center;verticalAlign=middle;resizable=0;points=[];autosize=1;strokeColor=none;fillColor=none;" vertex="1" parent="1">
          <mxGeometry x="-165" y="160" width="30" height="30" as="geometry" />
        </mxCell>
        <mxCell id="gbfgaIHnp0iiA1zuApGj-43" value="1" style="text;html=1;align=center;verticalAlign=middle;resizable=0;points=[];autosize=1;strokeColor=none;fillColor=none;" vertex="1" parent="1">
          <mxGeometry x="610" y="105" width="30" height="30" as="geometry" />
        </mxCell>
        <mxCell id="gbfgaIHnp0iiA1zuApGj-44" value="Employee" style="rounded=0;whiteSpace=wrap;html=1;" vertex="1" parent="1">
          <mxGeometry x="-270" y="480" width="110" height="40" as="geometry" />
        </mxCell>
        <mxCell id="gbfgaIHnp0iiA1zuApGj-45" value="&lt;u&gt;EmployeeID&lt;/u&gt;" style="ellipse;whiteSpace=wrap;html=1;" vertex="1" parent="1">
          <mxGeometry x="-520" y="500" width="90" height="50" as="geometry" />
        </mxCell>
        <mxCell id="gbfgaIHnp0iiA1zuApGj-46" value="FirstName" style="ellipse;whiteSpace=wrap;html=1;" vertex="1" parent="1">
          <mxGeometry x="-450" y="570" width="90" height="50" as="geometry" />
        </mxCell>
        <mxCell id="gbfgaIHnp0iiA1zuApGj-47" value="LastName" style="ellipse;whiteSpace=wrap;html=1;" vertex="1" parent="1">
          <mxGeometry x="-400" y="640" width="90" height="50" as="geometry" />
        </mxCell>
        <mxCell id="gbfgaIHnp0iiA1zuApGj-48" value="Role" style="ellipse;whiteSpace=wrap;html=1;" vertex="1" parent="1">
          <mxGeometry x="-260" y="760" width="90" height="50" as="geometry" />
        </mxCell>
        <mxCell id="gbfgaIHnp0iiA1zuApGj-49" value="Username" style="ellipse;whiteSpace=wrap;html=1;" vertex="1" parent="1">
          <mxGeometry x="-360" y="740" width="90" height="50" as="geometry" />
        </mxCell>
        <mxCell id="gbfgaIHnp0iiA1zuApGj-50" value="Password" style="ellipse;whiteSpace=wrap;html=1;" vertex="1" parent="1">
          <mxGeometry x="-170" y="740" width="90" height="50" as="geometry" />
        </mxCell>
        <mxCell id="gbfgaIHnp0iiA1zuApGj-51" value="Score" style="ellipse;whiteSpace=wrap;html=1;" vertex="1" parent="1">
          <mxGeometry x="-100" y="690" width="90" height="50" as="geometry" />
        </mxCell>
        <mxCell id="gbfgaIHnp0iiA1zuApGj-53" value="" style="endArrow=none;html=1;rounded=0;" edge="1" parent="1" source="gbfgaIHnp0iiA1zuApGj-45" target="gbfgaIHnp0iiA1zuApGj-44">
          <mxGeometry width="50" height="50" relative="1" as="geometry">
            <mxPoint x="-130" y="380" as="sourcePoint" />
            <mxPoint x="-199" y="454" as="targetPoint" />
            <Array as="points" />
          </mxGeometry>
        </mxCell>
        <mxCell id="gbfgaIHnp0iiA1zuApGj-54" value="" style="endArrow=none;html=1;rounded=0;" edge="1" parent="1" source="gbfgaIHnp0iiA1zuApGj-46" target="gbfgaIHnp0iiA1zuApGj-44">
          <mxGeometry width="50" height="50" relative="1" as="geometry">
            <mxPoint x="-205" y="380" as="sourcePoint" />
            <mxPoint x="-205" y="490" as="targetPoint" />
            <Array as="points" />
          </mxGeometry>
        </mxCell>
        <mxCell id="gbfgaIHnp0iiA1zuApGj-55" value="" style="endArrow=none;html=1;rounded=0;" edge="1" parent="1" source="gbfgaIHnp0iiA1zuApGj-47" target="gbfgaIHnp0iiA1zuApGj-44">
          <mxGeometry width="50" height="50" relative="1" as="geometry">
            <mxPoint x="-195" y="390" as="sourcePoint" />
            <mxPoint x="-240" y="490" as="targetPoint" />
            <Array as="points" />
          </mxGeometry>
        </mxCell>
        <mxCell id="gbfgaIHnp0iiA1zuApGj-56" value="" style="endArrow=none;html=1;rounded=0;exitX=1;exitY=0.5;exitDx=0;exitDy=0;" edge="1" parent="1" source="gbfgaIHnp0iiA1zuApGj-49" target="gbfgaIHnp0iiA1zuApGj-44">
          <mxGeometry width="50" height="50" relative="1" as="geometry">
            <mxPoint x="-185" y="400" as="sourcePoint" />
            <mxPoint x="-185" y="510" as="targetPoint" />
            <Array as="points" />
          </mxGeometry>
        </mxCell>
        <mxCell id="gbfgaIHnp0iiA1zuApGj-57" value="" style="endArrow=none;html=1;rounded=0;" edge="1" parent="1" source="gbfgaIHnp0iiA1zuApGj-48" target="gbfgaIHnp0iiA1zuApGj-44">
          <mxGeometry width="50" height="50" relative="1" as="geometry">
            <mxPoint x="-175" y="410" as="sourcePoint" />
            <mxPoint x="-175" y="520" as="targetPoint" />
            <Array as="points" />
          </mxGeometry>
        </mxCell>
        <mxCell id="gbfgaIHnp0iiA1zuApGj-58" value="" style="endArrow=none;html=1;rounded=0;exitX=0.5;exitY=0;exitDx=0;exitDy=0;" edge="1" parent="1" source="gbfgaIHnp0iiA1zuApGj-50" target="gbfgaIHnp0iiA1zuApGj-44">
          <mxGeometry width="50" height="50" relative="1" as="geometry">
            <mxPoint x="-165" y="420" as="sourcePoint" />
            <mxPoint x="-165" y="530" as="targetPoint" />
            <Array as="points" />
          </mxGeometry>
        </mxCell>
        <mxCell id="gbfgaIHnp0iiA1zuApGj-59" value="" style="endArrow=none;html=1;rounded=0;exitX=0.5;exitY=0;exitDx=0;exitDy=0;" edge="1" parent="1" source="gbfgaIHnp0iiA1zuApGj-51" target="gbfgaIHnp0iiA1zuApGj-44">
          <mxGeometry width="50" height="50" relative="1" as="geometry">
            <mxPoint x="-155" y="430" as="sourcePoint" />
            <mxPoint x="-155" y="540" as="targetPoint" />
            <Array as="points" />
          </mxGeometry>
        </mxCell>
        <mxCell id="gbfgaIHnp0iiA1zuApGj-60" value="Em-Fa" style="rhombus;whiteSpace=wrap;html=1;" vertex="1" parent="1">
          <mxGeometry x="-50" y="380" width="70" height="40" as="geometry" />
        </mxCell>
        <mxCell id="gbfgaIHnp0iiA1zuApGj-61" value="" style="endArrow=none;html=1;rounded=0;" edge="1" parent="1" source="gbfgaIHnp0iiA1zuApGj-60" target="gbfgaIHnp0iiA1zuApGj-44">
          <mxGeometry width="50" height="50" relative="1" as="geometry">
            <mxPoint x="-205" y="380" as="sourcePoint" />
            <mxPoint x="-205" y="490" as="targetPoint" />
            <Array as="points" />
          </mxGeometry>
        </mxCell>
        <mxCell id="gbfgaIHnp0iiA1zuApGj-62" value="" style="endArrow=none;html=1;rounded=0;" edge="1" parent="1" source="gbfgaIHnp0iiA1zuApGj-1" target="gbfgaIHnp0iiA1zuApGj-60">
          <mxGeometry width="50" height="50" relative="1" as="geometry">
            <mxPoint x="-24" y="419" as="sourcePoint" />
            <mxPoint x="-165" y="490" as="targetPoint" />
            <Array as="points" />
          </mxGeometry>
        </mxCell>
        <mxCell id="gbfgaIHnp0iiA1zuApGj-63" value="1" style="text;html=1;align=center;verticalAlign=middle;resizable=0;points=[];autosize=1;strokeColor=none;fillColor=none;" vertex="1" parent="1">
          <mxGeometry x="155" y="58" width="30" height="30" as="geometry" />
        </mxCell>
        <mxCell id="gbfgaIHnp0iiA1zuApGj-64" value="M" style="text;html=1;align=center;verticalAlign=middle;resizable=0;points=[];autosize=1;strokeColor=none;fillColor=none;" vertex="1" parent="1">
          <mxGeometry x="-175" y="448" width="30" height="30" as="geometry" />
        </mxCell>
        <mxCell id="gbfgaIHnp0iiA1zuApGj-65" value="Em-De" style="rhombus;whiteSpace=wrap;html=1;" vertex="1" parent="1">
          <mxGeometry x="135" y="390" width="70" height="40" as="geometry" />
        </mxCell>
        <mxCell id="gbfgaIHnp0iiA1zuApGj-66" value="" style="endArrow=none;html=1;rounded=0;" edge="1" parent="1" source="gbfgaIHnp0iiA1zuApGj-65" target="gbfgaIHnp0iiA1zuApGj-44">
          <mxGeometry width="50" height="50" relative="1" as="geometry">
            <mxPoint x="-24" y="419" as="sourcePoint" />
            <mxPoint x="-165" y="490" as="targetPoint" />
            <Array as="points" />
          </mxGeometry>
        </mxCell>
        <mxCell id="gbfgaIHnp0iiA1zuApGj-68" value="" style="endArrow=none;html=1;rounded=0;exitX=0.25;exitY=1;exitDx=0;exitDy=0;entryX=1;entryY=0;entryDx=0;entryDy=0;" edge="1" parent="1" source="gbfgaIHnp0iiA1zuApGj-7" target="gbfgaIHnp0iiA1zuApGj-65">
          <mxGeometry width="50" height="50" relative="1" as="geometry">
            <mxPoint x="155" y="426" as="sourcePoint" />
            <mxPoint x="-150" y="497" as="targetPoint" />
            <Array as="points" />
          </mxGeometry>
        </mxCell>
        <mxCell id="gbfgaIHnp0iiA1zuApGj-69" value="M" style="text;html=1;align=center;verticalAlign=middle;resizable=0;points=[];autosize=1;strokeColor=none;fillColor=none;" vertex="1" parent="1">
          <mxGeometry x="-155" y="478" width="30" height="30" as="geometry" />
        </mxCell>
        <mxCell id="gbfgaIHnp0iiA1zuApGj-70" value="1" style="text;html=1;align=center;verticalAlign=middle;resizable=0;points=[];autosize=1;strokeColor=none;fillColor=none;" vertex="1" parent="1">
          <mxGeometry x="640" y="120" width="30" height="30" as="geometry" />
        </mxCell>
        <mxCell id="gbfgaIHnp0iiA1zuApGj-72" value="CourseRegistration" style="rounded=0;whiteSpace=wrap;html=1;" vertex="1" parent="1">
          <mxGeometry x="-570" y="330" width="110" height="40" as="geometry" />
        </mxCell>
        <mxCell id="gbfgaIHnp0iiA1zuApGj-73" value="&lt;u&gt;RegistrationID&lt;/u&gt;" style="ellipse;whiteSpace=wrap;html=1;" vertex="1" parent="1">
          <mxGeometry x="-750" y="325" width="90" height="50" as="geometry" />
        </mxCell>
        <mxCell id="gbfgaIHnp0iiA1zuApGj-74" value="" style="endArrow=none;html=1;rounded=0;" edge="1" parent="1" source="gbfgaIHnp0iiA1zuApGj-72" target="gbfgaIHnp0iiA1zuApGj-73">
          <mxGeometry width="50" height="50" relative="1" as="geometry">
            <mxPoint x="-246" y="209" as="sourcePoint" />
            <mxPoint x="-612" y="152" as="targetPoint" />
            <Array as="points" />
          </mxGeometry>
        </mxCell>
        <mxCell id="gbfgaIHnp0iiA1zuApGj-75" value="CR-Co" style="rhombus;whiteSpace=wrap;html=1;" vertex="1" parent="1">
          <mxGeometry x="-380" y="250" width="70" height="40" as="geometry" />
        </mxCell>
        <mxCell id="gbfgaIHnp0iiA1zuApGj-76" value="CR-Em" style="rhombus;whiteSpace=wrap;html=1;" vertex="1" parent="1">
          <mxGeometry x="-380" y="370" width="70" height="40" as="geometry" />
        </mxCell>
        <mxCell id="gbfgaIHnp0iiA1zuApGj-77" value="" style="endArrow=none;html=1;rounded=0;entryX=1;entryY=0;entryDx=0;entryDy=0;" edge="1" parent="1" source="gbfgaIHnp0iiA1zuApGj-75" target="gbfgaIHnp0iiA1zuApGj-72">
          <mxGeometry width="50" height="50" relative="1" as="geometry">
            <mxPoint x="-260" y="190" as="sourcePoint" />
            <mxPoint x="-611" y="150" as="targetPoint" />
            <Array as="points" />
          </mxGeometry>
        </mxCell>
        <mxCell id="gbfgaIHnp0iiA1zuApGj-78" value="" style="endArrow=none;html=1;rounded=0;entryX=1;entryY=1;entryDx=0;entryDy=0;exitX=0.107;exitY=0.495;exitDx=0;exitDy=0;exitPerimeter=0;" edge="1" parent="1" source="gbfgaIHnp0iiA1zuApGj-76" target="gbfgaIHnp0iiA1zuApGj-72">
          <mxGeometry width="50" height="50" relative="1" as="geometry">
            <mxPoint x="-353" y="290" as="sourcePoint" />
            <mxPoint x="-450" y="340" as="targetPoint" />
            <Array as="points" />
          </mxGeometry>
        </mxCell>
        <mxCell id="gbfgaIHnp0iiA1zuApGj-79" value="" style="endArrow=none;html=1;rounded=0;entryX=1;entryY=0;entryDx=0;entryDy=0;exitX=0.136;exitY=0.999;exitDx=0;exitDy=0;exitPerimeter=0;" edge="1" parent="1" source="gbfgaIHnp0iiA1zuApGj-17" target="gbfgaIHnp0iiA1zuApGj-75">
          <mxGeometry width="50" height="50" relative="1" as="geometry">
            <mxPoint x="-343" y="300" as="sourcePoint" />
            <mxPoint x="-440" y="350" as="targetPoint" />
            <Array as="points" />
          </mxGeometry>
        </mxCell>
        <mxCell id="gbfgaIHnp0iiA1zuApGj-80" value="" style="endArrow=none;html=1;rounded=0;exitX=0.25;exitY=0;exitDx=0;exitDy=0;" edge="1" parent="1" source="gbfgaIHnp0iiA1zuApGj-44" target="gbfgaIHnp0iiA1zuApGj-76">
          <mxGeometry width="50" height="50" relative="1" as="geometry">
            <mxPoint x="-333" y="310" as="sourcePoint" />
            <mxPoint x="-430" y="360" as="targetPoint" />
            <Array as="points" />
          </mxGeometry>
        </mxCell>
        <mxCell id="gbfgaIHnp0iiA1zuApGj-83" value="1" style="text;html=1;align=center;verticalAlign=middle;resizable=0;points=[];autosize=1;strokeColor=none;fillColor=none;" vertex="1" parent="1">
          <mxGeometry x="-295" y="198" width="30" height="30" as="geometry" />
        </mxCell>
        <mxCell id="gbfgaIHnp0iiA1zuApGj-84" value="M" style="text;html=1;align=center;verticalAlign=middle;resizable=0;points=[];autosize=1;strokeColor=none;fillColor=none;" vertex="1" parent="1">
          <mxGeometry x="-470" y="300" width="30" height="30" as="geometry" />
        </mxCell>
        <mxCell id="gbfgaIHnp0iiA1zuApGj-85" value="1" style="text;html=1;align=center;verticalAlign=middle;resizable=0;points=[];autosize=1;strokeColor=none;fillColor=none;" vertex="1" parent="1">
          <mxGeometry x="-255" y="448" width="30" height="30" as="geometry" />
        </mxCell>
        <mxCell id="gbfgaIHnp0iiA1zuApGj-86" value="M" style="text;html=1;align=center;verticalAlign=middle;resizable=0;points=[];autosize=1;strokeColor=none;fillColor=none;" vertex="1" parent="1">
          <mxGeometry x="-470" y="370" width="30" height="30" as="geometry" />
        </mxCell>
        <mxCell id="gbfgaIHnp0iiA1zuApGj-89" value="Exam" style="rounded=0;whiteSpace=wrap;html=1;" vertex="1" parent="1">
          <mxGeometry x="500" y="500" width="110" height="40" as="geometry" />
        </mxCell>
        <mxCell id="gbfgaIHnp0iiA1zuApGj-90" value="&lt;u&gt;ExamID&lt;/u&gt;" style="ellipse;whiteSpace=wrap;html=1;" vertex="1" parent="1">
          <mxGeometry x="510" y="380" width="90" height="50" as="geometry" />
        </mxCell>
        <mxCell id="gbfgaIHnp0iiA1zuApGj-91" value="" style="endArrow=none;html=1;rounded=0;" edge="1" parent="1" source="gbfgaIHnp0iiA1zuApGj-90" target="gbfgaIHnp0iiA1zuApGj-89">
          <mxGeometry width="50" height="50" relative="1" as="geometry">
            <mxPoint x="668" y="130" as="sourcePoint" />
            <mxPoint x="198" y="410" as="targetPoint" />
            <Array as="points" />
          </mxGeometry>
        </mxCell>
        <mxCell id="gbfgaIHnp0iiA1zuApGj-92" value="ExamName" style="ellipse;whiteSpace=wrap;html=1;" vertex="1" parent="1">
          <mxGeometry x="620" y="385" width="100" height="50" as="geometry" />
        </mxCell>
        <mxCell id="gbfgaIHnp0iiA1zuApGj-93" value="" style="endArrow=none;html=1;rounded=0;" edge="1" parent="1" source="gbfgaIHnp0iiA1zuApGj-92" target="gbfgaIHnp0iiA1zuApGj-89">
          <mxGeometry width="50" height="50" relative="1" as="geometry">
            <mxPoint x="750" y="530" as="sourcePoint" />
            <mxPoint x="620" y="530" as="targetPoint" />
            <Array as="points" />
          </mxGeometry>
        </mxCell>
        <mxCell id="gbfgaIHnp0iiA1zuApGj-94" value="ExamDate" style="ellipse;whiteSpace=wrap;html=1;" vertex="1" parent="1">
          <mxGeometry x="710" y="560" width="100" height="50" as="geometry" />
        </mxCell>
        <mxCell id="gbfgaIHnp0iiA1zuApGj-95" value="ExamTime" style="ellipse;whiteSpace=wrap;html=1;" vertex="1" parent="1">
          <mxGeometry x="700" y="435" width="100" height="50" as="geometry" />
        </mxCell>
        <mxCell id="gbfgaIHnp0iiA1zuApGj-96" value="NumOfClasses" style="ellipse;whiteSpace=wrap;html=1;" vertex="1" parent="1">
          <mxGeometry x="730" y="495" width="100" height="50" as="geometry" />
        </mxCell>
        <mxCell id="gbfgaIHnp0iiA1zuApGj-97" value="" style="endArrow=none;html=1;rounded=0;exitX=0;exitY=0.5;exitDx=0;exitDy=0;entryX=1;entryY=0;entryDx=0;entryDy=0;" edge="1" parent="1" source="gbfgaIHnp0iiA1zuApGj-95" target="gbfgaIHnp0iiA1zuApGj-89">
          <mxGeometry width="50" height="50" relative="1" as="geometry">
            <mxPoint x="671" y="459" as="sourcePoint" />
            <mxPoint x="600" y="527" as="targetPoint" />
            <Array as="points" />
          </mxGeometry>
        </mxCell>
        <mxCell id="gbfgaIHnp0iiA1zuApGj-98" value="" style="endArrow=none;html=1;rounded=0;exitX=0;exitY=0.5;exitDx=0;exitDy=0;" edge="1" parent="1" source="gbfgaIHnp0iiA1zuApGj-96">
          <mxGeometry width="50" height="50" relative="1" as="geometry">
            <mxPoint x="710" y="470" as="sourcePoint" />
            <mxPoint x="610" y="520" as="targetPoint" />
            <Array as="points" />
          </mxGeometry>
        </mxCell>
        <mxCell id="gbfgaIHnp0iiA1zuApGj-99" value="" style="endArrow=none;html=1;rounded=0;exitX=0.064;exitY=0.329;exitDx=0;exitDy=0;entryX=1;entryY=1;entryDx=0;entryDy=0;exitPerimeter=0;" edge="1" parent="1" source="gbfgaIHnp0iiA1zuApGj-94" target="gbfgaIHnp0iiA1zuApGj-89">
          <mxGeometry width="50" height="50" relative="1" as="geometry">
            <mxPoint x="710" y="470" as="sourcePoint" />
            <mxPoint x="620" y="510" as="targetPoint" />
            <Array as="points" />
          </mxGeometry>
        </mxCell>
        <mxCell id="gbfgaIHnp0iiA1zuApGj-100" value="Co-Ex" style="rhombus;whiteSpace=wrap;html=1;" vertex="1" parent="1">
          <mxGeometry x="155" y="250" width="70" height="40" as="geometry" />
        </mxCell>
        <mxCell id="gbfgaIHnp0iiA1zuApGj-101" value="" style="endArrow=none;html=1;rounded=0;exitX=0;exitY=0.5;exitDx=0;exitDy=0;entryX=0.891;entryY=1.031;entryDx=0;entryDy=0;entryPerimeter=0;" edge="1" parent="1" source="gbfgaIHnp0iiA1zuApGj-100" target="gbfgaIHnp0iiA1zuApGj-17">
          <mxGeometry width="50" height="50" relative="1" as="geometry">
            <mxPoint x="210" y="188" as="sourcePoint" />
            <mxPoint x="-150" y="190" as="targetPoint" />
            <Array as="points" />
          </mxGeometry>
        </mxCell>
        <mxCell id="gbfgaIHnp0iiA1zuApGj-102" value="1" style="text;html=1;align=center;verticalAlign=middle;resizable=0;points=[];autosize=1;strokeColor=none;fillColor=none;" vertex="1" parent="1">
          <mxGeometry x="-165" y="185" width="30" height="30" as="geometry" />
        </mxCell>
        <mxCell id="gbfgaIHnp0iiA1zuApGj-103" value="" style="endArrow=none;html=1;rounded=0;exitX=0;exitY=0.5;exitDx=0;exitDy=0;" edge="1" parent="1" source="gbfgaIHnp0iiA1zuApGj-89" target="gbfgaIHnp0iiA1zuApGj-100">
          <mxGeometry width="50" height="50" relative="1" as="geometry">
            <mxPoint x="165" y="280" as="sourcePoint" />
            <mxPoint x="-162" y="211" as="targetPoint" />
            <Array as="points" />
          </mxGeometry>
        </mxCell>
        <mxCell id="gbfgaIHnp0iiA1zuApGj-104" value="M" style="text;html=1;align=center;verticalAlign=middle;resizable=0;points=[];autosize=1;strokeColor=none;fillColor=none;" vertex="1" parent="1">
          <mxGeometry x="460" y="505" width="30" height="30" as="geometry" />
        </mxCell>
        <mxCell id="gbfgaIHnp0iiA1zuApGj-105" value="Fa-Ex" style="rhombus;whiteSpace=wrap;html=1;" vertex="1" parent="1">
          <mxGeometry x="350" y="210" width="70" height="40" as="geometry" />
        </mxCell>
        <mxCell id="gbfgaIHnp0iiA1zuApGj-106" value="" style="endArrow=none;html=1;rounded=0;exitX=0;exitY=0;exitDx=0;exitDy=0;entryX=0.75;entryY=1;entryDx=0;entryDy=0;" edge="1" parent="1" source="gbfgaIHnp0iiA1zuApGj-105" target="gbfgaIHnp0iiA1zuApGj-1">
          <mxGeometry width="50" height="50" relative="1" as="geometry">
            <mxPoint x="360" y="110" as="sourcePoint" />
            <mxPoint x="270" y="50" as="targetPoint" />
            <Array as="points" />
          </mxGeometry>
        </mxCell>
        <mxCell id="gbfgaIHnp0iiA1zuApGj-107" value="" style="endArrow=none;html=1;rounded=0;entryX=0.5;entryY=1;entryDx=0;entryDy=0;" edge="1" parent="1" source="gbfgaIHnp0iiA1zuApGj-89" target="gbfgaIHnp0iiA1zuApGj-105">
          <mxGeometry width="50" height="50" relative="1" as="geometry">
            <mxPoint x="370" y="120" as="sourcePoint" />
            <mxPoint x="280" y="60" as="targetPoint" />
            <Array as="points" />
          </mxGeometry>
        </mxCell>
        <mxCell id="gbfgaIHnp0iiA1zuApGj-108" value="1" style="text;html=1;align=center;verticalAlign=middle;resizable=0;points=[];autosize=1;strokeColor=none;fillColor=none;" vertex="1" parent="1">
          <mxGeometry x="235" y="58" width="30" height="30" as="geometry" />
        </mxCell>
        <mxCell id="gbfgaIHnp0iiA1zuApGj-109" value="M" style="text;html=1;align=center;verticalAlign=middle;resizable=0;points=[];autosize=1;strokeColor=none;fillColor=none;" vertex="1" parent="1">
          <mxGeometry x="500" y="465" width="30" height="30" as="geometry" />
        </mxCell>
        <mxCell id="gbfgaIHnp0iiA1zuApGj-110" value="AssistantExamAssignment" style="rounded=0;whiteSpace=wrap;html=1;" vertex="1" parent="1">
          <mxGeometry x="235" y="680" width="155" height="60" as="geometry" />
        </mxCell>
        <mxCell id="gbfgaIHnp0iiA1zuApGj-111" value="&lt;u&gt;AssignmentID&lt;/u&gt;" style="ellipse;whiteSpace=wrap;html=1;" vertex="1" parent="1">
          <mxGeometry x="490" y="740" width="90" height="50" as="geometry" />
        </mxCell>
        <mxCell id="gbfgaIHnp0iiA1zuApGj-112" value="" style="endArrow=none;html=1;rounded=0;entryX=1;entryY=0.5;entryDx=0;entryDy=0;" edge="1" parent="1" source="gbfgaIHnp0iiA1zuApGj-111" target="gbfgaIHnp0iiA1zuApGj-110">
          <mxGeometry width="50" height="50" relative="1" as="geometry">
            <mxPoint x="726" y="586" as="sourcePoint" />
            <mxPoint x="620" y="550" as="targetPoint" />
            <Array as="points" />
          </mxGeometry>
        </mxCell>
        <mxCell id="gbfgaIHnp0iiA1zuApGj-113" value="Em-As" style="rhombus;whiteSpace=wrap;html=1;" vertex="1" parent="1">
          <mxGeometry x="65" y="540" width="70" height="40" as="geometry" />
        </mxCell>
        <mxCell id="gbfgaIHnp0iiA1zuApGj-114" value="" style="endArrow=none;html=1;rounded=0;entryX=1;entryY=0.75;entryDx=0;entryDy=0;" edge="1" parent="1" source="gbfgaIHnp0iiA1zuApGj-113" target="gbfgaIHnp0iiA1zuApGj-44">
          <mxGeometry width="50" height="50" relative="1" as="geometry">
            <mxPoint x="155" y="426" as="sourcePoint" />
            <mxPoint x="-150" y="497" as="targetPoint" />
            <Array as="points" />
          </mxGeometry>
        </mxCell>
        <mxCell id="gbfgaIHnp0iiA1zuApGj-115" value="" style="endArrow=none;html=1;rounded=0;entryX=1;entryY=1;entryDx=0;entryDy=0;exitX=0;exitY=0;exitDx=0;exitDy=0;" edge="1" parent="1" source="gbfgaIHnp0iiA1zuApGj-110" target="gbfgaIHnp0iiA1zuApGj-113">
          <mxGeometry width="50" height="50" relative="1" as="geometry">
            <mxPoint x="84" y="565" as="sourcePoint" />
            <mxPoint x="-150" y="520" as="targetPoint" />
            <Array as="points" />
          </mxGeometry>
        </mxCell>
        <mxCell id="gbfgaIHnp0iiA1zuApGj-116" value="1" style="text;html=1;align=center;verticalAlign=middle;resizable=0;points=[];autosize=1;strokeColor=none;fillColor=none;" vertex="1" parent="1">
          <mxGeometry x="-155" y="508" width="30" height="30" as="geometry" />
        </mxCell>
        <mxCell id="gbfgaIHnp0iiA1zuApGj-117" value="M" style="text;html=1;align=center;verticalAlign=middle;resizable=0;points=[];autosize=1;strokeColor=none;fillColor=none;" vertex="1" parent="1">
          <mxGeometry x="205" y="668" width="30" height="30" as="geometry" />
        </mxCell>
        <mxCell id="gbfgaIHnp0iiA1zuApGj-118" value="Ex-As" style="rhombus;whiteSpace=wrap;html=1;" vertex="1" parent="1">
          <mxGeometry x="320" y="545" width="70" height="40" as="geometry" />
        </mxCell>
        <mxCell id="gbfgaIHnp0iiA1zuApGj-119" value="" style="endArrow=none;html=1;rounded=0;" edge="1" parent="1" target="gbfgaIHnp0iiA1zuApGj-118">
          <mxGeometry width="50" height="50" relative="1" as="geometry">
            <mxPoint x="321" y="680" as="sourcePoint" />
            <mxPoint x="128" y="580" as="targetPoint" />
            <Array as="points" />
          </mxGeometry>
        </mxCell>
        <mxCell id="gbfgaIHnp0iiA1zuApGj-122" value="M" style="edgeLabel;html=1;align=center;verticalAlign=middle;resizable=0;points=[];" vertex="1" connectable="0" parent="gbfgaIHnp0iiA1zuApGj-119">
          <mxGeometry x="-0.7081" y="-3" relative="1" as="geometry">
            <mxPoint x="12" y="1" as="offset" />
          </mxGeometry>
        </mxCell>
        <mxCell id="gbfgaIHnp0iiA1zuApGj-120" value="" style="endArrow=none;html=1;rounded=0;entryX=0;entryY=0.75;entryDx=0;entryDy=0;exitX=1;exitY=0.5;exitDx=0;exitDy=0;" edge="1" parent="1" source="gbfgaIHnp0iiA1zuApGj-118" target="gbfgaIHnp0iiA1zuApGj-89">
          <mxGeometry width="50" height="50" relative="1" as="geometry">
            <mxPoint x="255" y="700" as="sourcePoint" />
            <mxPoint x="138" y="590" as="targetPoint" />
            <Array as="points" />
          </mxGeometry>
        </mxCell>
        <mxCell id="gbfgaIHnp0iiA1zuApGj-121" value="1" style="text;html=1;align=center;verticalAlign=middle;resizable=0;points=[];autosize=1;strokeColor=none;fillColor=none;" vertex="1" parent="1">
          <mxGeometry x="475" y="538" width="30" height="30" as="geometry" />
        </mxCell>
      </root>
    </mxGraphModel>
  </diagram>
</mxfile>
